<svg width="20" height="21" viewBox="0 0 20 21" fill="none" xmlns="http://www.w3.org/2000/svg">
<path d="M17.1309 4.89521L15.0508 2.71318C14.7969 2.44658 14.457 2.29688 14.0977 2.29688C13.7383 2.29688 13.3984 2.44453 13.1445 2.71318L10.9043 5.06133C10.6504 5.32793 10.5078 5.68682 10.5078 6.06416C10.5078 6.44355 10.6484 6.79834 10.9043 7.06699L12.6543 8.90654C12.2556 9.88187 11.6828 10.768 10.9668 11.5172C10.25 12.2739 9.41211 12.8707 8.48242 13.2932L6.73242 11.4536C6.47852 11.187 6.13867 11.0373 5.7793 11.0373C5.60204 11.0366 5.42643 11.0731 5.26277 11.1446C5.0991 11.2161 4.95067 11.3211 4.82617 11.4536L2.58398 13.8018C2.33008 14.0684 2.1875 14.4272 2.1875 14.8046C2.1875 15.184 2.32813 15.5388 2.58398 15.8074L4.66211 17.9895C5.0957 18.4447 5.69336 18.7052 6.30664 18.7052C6.43359 18.7052 6.55664 18.6949 6.68164 18.6724C9.26758 18.2253 11.834 16.7795 13.9063 14.6057C15.9766 12.4277 17.3516 9.73301 17.7813 7.01572C17.9043 6.24463 17.6582 5.45098 17.1309 4.89521ZM16.3965 6.77168C16.0156 9.18955 14.7773 11.6013 12.9121 13.5598C11.0469 15.5183 8.75195 16.8185 6.44922 17.2184C6.16016 17.2696 5.86328 17.1671 5.65234 16.9477L3.61133 14.8046L5.77539 12.5303L8.11524 14.9912L8.13281 15.0097L8.55469 14.8456C9.83384 14.3518 10.9954 13.5718 11.959 12.5598C12.9225 11.5477 13.6649 10.3278 14.1348 8.98447L14.291 8.5415L11.9316 6.06621L14.0957 3.79189L16.1367 5.93496C16.3477 6.15645 16.4453 6.46816 16.3965 6.77168Z" fill="#374151"/>
</svg>
